<svg class="Icon--small Icon Omnibutton-menuIcon PortfolioGenericIcon" xmlns="http://www.w3.org/2000/svg" viewBox="0 0 32 32" aria-hidden="true" focusable="false"><path d="M29 8C30.6569 8 32 9.34315 32 11V25C32 27.7614 29.7614 30 27 30H5C2.23858 30 0 27.7614 0 25V5C0 3.34315 1.34315 2 3 2H12.2C12.5693 2 12.9086 2.20355 13.0824 2.52941L15.1529 6.41177C15.6743 7.38936 16.6921 8 17.8 8H29ZM30 11V25C30 26.6569 28.6569 28 27 28H5C3.34315 28 2 26.6569 2 25V10H29C29.5523 10 30 10.4477 30 11ZM13.7999 8C13.6477 7.79704 13.5099 7.58098 13.3882 7.35294L11.6 4H3C2.44772 4 2 4.44772 2 5V8H13.7999Z"></path></svg>