<svg class="Icon--small Icon Omnibutton-menuIcon CommentLineIcon" xmlns="http://www.w3.org/2000/svg" viewBox="0 0 32 32" aria-hidden="true" focusable="false"><path d="M5,31c-0.1,0-0.3,0-0.4-0.1C4.2,30.7,4,30.4,4,30v-7.1c-2.5-2.3-4-5.5-4-8.9C0,7.4,5.4,2,12,2h8c6.6,0,12,5.4,12,12 s-5.4,12-12,12h-8c-0.1,0-0.3,0-0.4,0l-5.9,4.8C5.4,30.9,5.2,31,5,31z M12,4C6.5,4,2,8.5,2,14c0,3,1.3,5.8,3.6,7.7C5.9,21.9,6,22.2,6,22.5v5.4l4.6-3.7C10.8,24,11,24,11.3,24h0.1c0.2,0,0.4,0,0.6,0h8c5.5,0,10-4.5,10-10S25.5,4,20,4 C20,4,12,4,12,4z"></path></svg>