<svg width="16" height="16" xmlns="http://www.w3.org/2000/svg" viewBox="0 0 16 16" fill="rgba(13, 14, 16, 0.5)" style="fill: rgba(13, 14, 16, 0.5);">
    <path d="M8 0C3.6 0 0 3.6 0 8C0 12.4 3.6 16 8 16C12.4 16 16 12.4 16 8C16 3.6 12.4 0 8 0ZM14.3 5H11.25C11 3.45 10.55 2.15 9.95 1.3C11.9 1.85 13.45 3.2 14.3 5ZM10.5 8C10.5 8.7 10.45 9.35 10.4 10H5.6C5.55 9.35 5.5 8.7 5.5 8C5.5 7.3 5.55 6.65 5.6 6H10.4C10.45 6.65 10.5 7.3 10.5 8ZM8 15C7.15 15 6.2 13.45 5.75 11H10.25C9.8 13.45 8.85 15 8 15ZM5.75 5C6.2 2.55 7.15 1 8 1C8.85 1 9.8 2.55 10.25 5H5.75ZM6.05 1.3C5.45 2.15 5 3.45 4.75 5H1.7C2.55 3.2 4.1 1.85 6.05 1.3ZM1.3 6H4.6C4.55 6.65 4.5 7.3 4.5 8C4.5 8.7 4.55 9.35 4.6 10H1.3C1.1 9.35 1 8.7 1 8C1 7.3 1.1 6.65 1.3 6ZM1.7 11H4.75C5 12.55 5.45 13.85 6.05 14.7C4.1 14.15 2.55 12.8 1.7 11ZM9.95 14.7C10.55 13.8 11 12.55 11.25 11H14.3C13.45 12.8 11.9 14.15 9.95 14.7ZM14.7 10H11.4C11.45 9.35 11.5 8.7 11.5 8C11.5 7.3 11.45 6.65 11.4 6H14.7C14.9 6.65 15 7.3 15 8C15 8.7 14.9 9.35 14.7 10Z" />
</svg>