<svg xmlns="http://www.w3.org/2000/svg" xmlns:xlink="http://www.w3.org/1999/xlink" viewBox="0 0 400 200.29"><defs><style>.a,.ab,.w{fill:none;}.b{fill:url(#a);}.c{clip-path:url(#b);}.d{fill:url(#c);}.e{fill:url(#d);}.f{fill:url(#e);}.g{clip-path:url(#f);}.h{fill:url(#g);}.i{fill:url(#h);}.j{fill:url(#i);}.k{fill:url(#j);}.l{fill:url(#k);}.m{clip-path:url(#l);}.n{fill:url(#m);}.o{fill:#06cbff;}.p{clip-path:url(#n);}.q{fill:#06b4ff;}.r{fill:#084480;}.s{fill:#0073de;}.t{fill:#ffe01b;}.u{fill:#ffbb1b;}.v{fill:#0063bf;}.ab,.w{stroke:#084480;stroke-linecap:round;stroke-linejoin:round;}.w{stroke-width:0.63px;}.x{fill:#ff7381;}.y{fill:#ff5768;}.z{fill:#ffc7db;}.aa{fill:#ffadcb;}.ab{stroke-width:1.27px;}.ac{fill:#07396b;}</style><linearGradient id="a" x1="-17.5" y1="-451.64" x2="-3.65" y2="-451.64" gradientTransform="matrix(1, 0, 0, -1, 224, -423.8)" gradientUnits="userSpaceOnUse"><stop offset="0" stop-color="#fcb935"/><stop offset="1" stop-color="#fddd3a"/></linearGradient><clipPath id="b"><path class="a" d="M220.35,27.84c-4.1,0-6.9,3.8-6.9,7.7,0-3.8-2.8-7.7-6.9-7.7,4.1,0,6.9-3.8,6.9-7.7C213.45,23.94,216.25,27.84,220.35,27.84Z"/></clipPath><linearGradient id="c" x1="-26.46" y1="-454.42" x2="-0.5" y2="-454.42" gradientTransform="matrix(1, 0, 0, -1, 224, -423.8)" gradientUnits="userSpaceOnUse"><stop offset="0" stop-color="#ffbb1b"/><stop offset="1" stop-color="#ffe01b"/></linearGradient><linearGradient id="d" x1="-154.25" y1="-488.14" x2="-143.53" y2="-488.14" xlink:href="#a"/><linearGradient id="e" x1="80.57" y1="-470.54" x2="94.42" y2="-470.54" xlink:href="#a"/><clipPath id="f"><path class="a" d="M318.45,46.74c-4.1,0-6.9,3.8-6.9,7.7,0-3.8-2.8-7.7-6.9-7.7,4.1,0,6.9-3.8,6.9-7.7C311.55,42.84,314.35,46.74,318.45,46.74Z"/></clipPath><linearGradient id="g" x1="71.63" y1="-473.32" x2="97.56" y2="-473.32" xlink:href="#c"/><linearGradient id="h" x1="-137.18" y1="-464.84" x2="-128.56" y2="-464.84" xlink:href="#a"/><linearGradient id="i" x1="97.58" y1="-489.74" x2="106.19" y2="-489.74" xlink:href="#a"/><linearGradient id="j" x1="5.86" y1="-468.14" x2="14.48" y2="-468.14" xlink:href="#a"/><linearGradient id="k" x1="-53.77" y1="-482.54" x2="-41.12" y2="-482.54" xlink:href="#a"/><clipPath id="l"><path class="a" d="M183,58.74c-3.7,0-6.3,3.5-6.3,7,0-3.5-2.6-7-6.3-7,3.7,0,6.3-3.5,6.3-7C176.55,55.24,179.15,58.74,183,58.74Z"/></clipPath><linearGradient id="m" x1="-61.94" y1="-485.02" x2="-38.25" y2="-485.02" xlink:href="#c"/><clipPath id="n"><path class="a" d="M212.65,76.14s6,14.9,1.4,16.7c-2.9,1.1-7.1.5-7.1.5l1.8,8.9-8.7-3.5s.8-12.6,1-19C201.15,76.34,209.55,75.14,212.65,76.14Z"/></clipPath></defs><path class="b" d="M220.35,27.84c-4.1,0-6.9,3.8-6.9,7.7,0-3.8-2.8-7.7-6.9-7.7,4.1,0,6.9-3.8,6.9-7.7C213.45,23.94,216.25,27.84,220.35,27.84Z"/><g class="c"><path class="d" d="M200.85,25.34a7.63,7.63,0,0,0,4,2.5c2.5.9,5.2,1.4,7.5.2a26.1,26.1,0,0,0,2.7-1.9,6.41,6.41,0,0,1,6-.5,4.39,4.39,0,0,1,2.3,5.2,6.24,6.24,0,0,1-3,3,18.93,18.93,0,0,1-19.1-.6,8.48,8.48,0,0,1-2.6-2.4,4.72,4.72,0,0,1-1-3.4"/></g><path class="e" d="M80.55,64.34c-3.2,0-5.4,3-5.4,5.9,0-3-2.2-5.9-5.4-5.9,3.2,0,5.4-3,5.4-5.9C75.15,61.44,77.35,64.34,80.55,64.34Z"/><path class="f" d="M318.45,46.74c-4.1,0-6.9,3.8-6.9,7.7,0-3.8-2.8-7.7-6.9-7.7,4.1,0,6.9-3.8,6.9-7.7C311.55,42.84,314.35,46.74,318.45,46.74Z"/><g class="g"><path class="h" d="M299,44.24a7.63,7.63,0,0,0,4,2.5c2.5.9,5.2,1.4,7.5.2a26.1,26.1,0,0,0,2.7-1.9,6.41,6.41,0,0,1,6-.5,4.39,4.39,0,0,1,2.3,5.2,6.24,6.24,0,0,1-3,3,18.93,18.93,0,0,1-19.1-.6,8.48,8.48,0,0,1-2.6-2.4,4.72,4.72,0,0,1-1-3.4"/></g><path class="i" d="M95.45,41c-2.5,0-4.3,2.4-4.3,4.8,0-2.4-1.8-4.8-4.3-4.8,2.5,0,4.3-2.4,4.3-4.8A4.58,4.58,0,0,0,95.45,41Z"/><path class="j" d="M330.25,65.94c-2.5,0-4.3,2.4-4.3,4.8,0-2.4-1.8-4.8-4.3-4.8,2.5,0,4.3-2.4,4.3-4.8C326,63.54,327.65,65.94,330.25,65.94Z"/><path class="k" d="M238.55,44.34c-2.5,0-4.3,2.4-4.3,4.8,0-2.4-1.8-4.8-4.3-4.8,2.5,0,4.3-2.4,4.3-4.8C234.25,41.84,236.05,44.34,238.55,44.34Z"/><path class="l" d="M183,58.74c-3.7,0-6.3,3.5-6.3,7,0-3.5-2.6-7-6.3-7,3.7,0,6.3-3.5,6.3-7C176.55,55.24,179.15,58.74,183,58.74Z"/><g class="m"><path class="n" d="M165.15,56.34a6.29,6.29,0,0,0,3.6,2.3c2.2.8,4.8,1.2,6.9.2.9-.5,1.6-1.2,2.5-1.7a6,6,0,0,1,5.5-.5,4,4,0,0,1,2.1,4.8,5.89,5.89,0,0,1-2.7,2.7,17.21,17.21,0,0,1-17.4-.5,7.19,7.19,0,0,1-2.4-2.2,4.37,4.37,0,0,1-.9-3.1"/></g><path class="o" d="M170.05,126.44l.4,3.2s-1.6,8.5,2.8,7.6-.5-7.6-.5-7.6l.5-2.8Z"/><path class="o" d="M212.65,76.14s6,14.9,1.4,16.7c-2.9,1.1-7.1.5-7.1.5l1.8,8.8-8.8-3.4s.8-12.6,1-19C201.15,76.34,209.55,75.14,212.65,76.14Z"/><g class="p"><path class="q" d="M208.15,93.64l-4.7-1.1s2.8,8.1,5.2,8.2C211.15,101,208.15,93.64,208.15,93.64Z"/></g><path class="q" d="M213.15,77.74s-1.8,5.2-4,6.1-5.8-1.1-5.9-1.3-.2-4.4-.2-4.4l9.6-1.9Z"/><path class="r" d="M200.45,92.34l.5-5.4h0Z"/><path class="o" d="M224.75,87.94s-4.6-3-3.8-4.1,2.8.8,2.8.8-.5-6.7,2.2-6.3,1.2,8.3,1.2,8.3l.9,3.6H225Z"/><path class="s" d="M228.45,89.94s5.5,19.6-2.4,22.6c-6.3,2.4-17-.3-17-.3l-5.3,16.6-19.5-.4a35,35,0,0,1,8.9-21.2s-17.6-4.6-19.6,20.5h-3.5s-2.8-13.2,5.3-22.9c8.4-10.1,25.2-6.6,25.2-6.6s5.8,1.9,11.8,4.4c4.7,1.9,8.8,4.1,11.6,1.9,2.5-1.9,1.3-8.5.6-14.4h3.9v-.2Z"/><path class="t" d="M200.05,97.74s.2,26.9.9,26.8c1.4-.2,7.6-23.8,7.6-23.8A33.17,33.17,0,0,0,200.05,97.74Z"/><path class="u" d="M200.35,100.84v.8l7.7,1.5a2.35,2.35,0,0,0,.2-.8Z"/><path class="u" d="M200.35,105.54v.8l6.6.8a2.35,2.35,0,0,0,.2-.8Z"/><path class="u" d="M200.35,109.44v.8l5.5.6a2.35,2.35,0,0,0,.2-.8Z"/><path class="u" d="M200.35,114.44v.8l4,.5c.1-.3.2-.5.3-.8Z"/><path class="u" d="M203.05,120c.1-.3.2-.5.3-.8l-2.8-.3v.8Z"/><path class="s" d="M115.75,61.34c2.2,7.5,7.5,9.7,16.1,12.7s16.4,4.6,18.9-2.5-5.1-10.3-6.3-14.4,8-11-1.6-17.6c-6.7-4.6-11.8,2-11.8,2C114.55,34.54,113.75,54.44,115.75,61.34Z"/><path class="v" d="M141.55,61.24c-3.8-2.7-3.5-9.3-2.9-13.2,0,0-5.1,3.6-7.4,3.2s-2.5-4.2-2.5-4.2c-8.2-4.9-6.5,14.2-13.8,8.5a19.32,19.32,0,0,0,.8,5.8c2.2,7.5,7.5,9.7,16.1,12.7s16.4,4.6,18.9-2.5c1.7-4.7-1.1-7.6-3.5-10.3C145.45,61.84,143.75,62.74,141.55,61.24Z"/><path class="w" d="M138.35,52.14c.2,0,3.9,1.3,3.9,1.3"/><path class="x" d="M129.45,66.44v.8s-5.3-1.9-7.7-2.8l3.9-11.6s-3.1-2.2-1.9-3.9c.8-1.2,2.6.1,3.5.9l.5.5,1-3.3s5.3,2.7,10.2,1v.4l.3,1.9c.3,1.6.5,6.5-1.4,9.3-2.7,3.8-8.9-.5-8.9-.5h0Z"/><path class="y" d="M126.55,58.54l2.5.8.3,7.1-.2-.1C126.15,64.34,126.55,58.54,126.55,58.54Z"/><circle class="w" cx="139.35" cy="52.94" r="3"/><circle class="w" cx="131.95" cy="52.14" r="3"/><path class="w" d="M136.35,52h0a1.43,1.43,0,0,0-1.5-.3h0"/><line class="w" x1="126.15" y1="48.34" x2="129.35" y2="50.54"/><path class="x" d="M98.05,86.44l-2.7.9.5,2.1s-.8,7.4,1.4,6.8,1.9-5,1.9-5,1.9,1.5,2.5.5-3.5-3.4-3.5-3.4Z"/><path class="x" d="M153.65,82.94l1.1,2.1,2.2-.7s7.8-.9,6.9-3-6.1-.4-6.1-.4,1.3-2.2.2-2.7-2.5,4-2.5,4Z"/><path class="r" d="M123,60.44c-12.5-2.3-21.3-.9-27.3,6.8-5.6,7.1-.8,20.6-.8,20.6l3.9-.8c-3.8-21.6,13.9-19.9,13.9-19.9-8,11.4-5,21.5-5,21.5l17.3-2.1c-2.5-8.4,5.4-12.9,5.4-12.9s2,11.8,7.5,14,17.6-2.4,17.6-2.4l-1.4-3.5c-17.9,4-14.5-5.9-17.5-11.8-2.5-4.8-7.6-7.4-13.6-9.5"/><polygon class="z" points="139.45 109.94 111.75 122.14 110.05 119.34 136.95 100.84 139.45 109.94"/><polygon class="aa" points="120.95 111.84 124.75 116.44 132.25 113.14 126.15 107.84 120.95 111.84"/><path class="z" d="M137,100.84l-3.3,2.3,6,6.5s3-1.6,5.8-3.3h.1c2.2-1.6,3.2-3.4,2.8-5.8-1.5-7.6-23.5-13.9-23.5-13.9l-17.3,2.1c1.9,6.9,14,18.2,20,22.5s23.2,15.1,23.2,15.1l3.1-2.5-14-14.3L126.05,95Z"/><path class="s" d="M150.75,126.34l2.4-3.2s2.4-3.4,5.6-2.1l-5.8,7Z"/><path class="s" d="M110.05,119.24l2.1,3.4s2.3,3.5-.1,6l-4.4-8Z"/><path class="t" d="M121,60.14s-5.9,15.1-3.6,16.4,14.4-11.9,14.4-11.9l-1.1-.8s-7.9,9-9.8,7.7.6-11.4.6-11.4Z"/><path class="s" d="M250.55,74.34l-.3,2.7-3-1.4s-8-1.3-7.3-3.6,5.8-.4,5.8-.4-1.5-1.9-.5-2.6,3.4,4.5,3.4,4.5Z"/><path class="ab" d="M270.25,44.44c.1-2.9,2.3-10.3,9.9-7.1"/><path class="s" d="M278.65,44.94s7.4,4.7,7.5,5.2-4.2,8.5-4.2,8.5c0-.5.2,6.6.5,6.8s-7.7.4-7.7.4l2-6s-6.6.4-7.6-2c-.9-2,1.5-11,1.5-11Z"/><path class="v" d="M275.25,64.84s-.7,2.8,2,1.7,2.5-6.4,2.5-6.4l-2.9-.2Z"/><path class="v" d="M278.65,47.14l3.8,1.9s-4.1,2-6,2.2a6.83,6.83,0,0,1-7.3-4.7Z"/><path class="o" d="M282.05,56.64s3.6-4.4,2.7-5.2-2.8.8-2.8.8v-3s-3.9,1-4.8-2.3c0,0-2.3,2.8-6.6.1-.1,0-1.1,4.7-1.1,4.7-.9.3-3.7,1.6-5.9-.6,0,0,3-.1,2.5-1.9s-1.6-3.9-1.4-5.9c.3-3.3,2.5-6,7.6-6.3a6.62,6.62,0,0,1,5.5,2.9s5.3-1.9,8.8.9,4.2,10.1-4.5,17.8Z"/><circle class="r" cx="283.35" cy="52.54" r="3.9"/><path class="ab" d="M280.05,37.34c7.5,3.2,3.3,15.3,3.3,15.3"/><path class="z" d="M275.45,63.84c-6.7,11.2-17.6,10.5-25.3,9.9l-1.4,3.6s10,3.7,19.3,1.1c6.1-1.7,10.4-4.7,15.5-11.1Z"/><path class="aa" d="M267.15,71.84l-.8,7c.6-.1,1.2-.3,1.7-.4,6.1-1.7,10.4-4.7,15.5-11.1l-8.1-3.5A19.69,19.69,0,0,1,267.15,71.84Z"/><path class="z" d="M282.85,63.64l-7.3.2c-2.7,4.8-2.7,12.9-6.4,20.9l15.6,4.8a103.21,103.21,0,0,0,3.1-16"/><path class="x" d="M286.85,119.14s-18.9-8.5-10.7-26.4l-12.1,4.4c-1.1,14.4,10.1,23.5,21.4,25.4"/><path class="y" d="M275.15,95l-.6-1.9L264,97a25.88,25.88,0,0,0,.3,6.3l9.8-.5A19.26,19.26,0,0,1,275.15,95Z"/><path class="x" d="M284.75,89.44c-1.1,5.5-3,12.9-15.6,9.3-15.5-4.3-16.3,12.6-12.5,22.3l-3.8,1.6s-8.4-13.3-4-26.1c3.6-10.5,19-12.8,20.5-12.2Z"/><path class="r" d="M256.55,121l-3.3,1.2s-4.2,1.7-3.3,4.6l7.7-3.4Z"/><path class="r" d="M286.85,119.14l-1.4,3.3s-1.5,4.3,1.2,5.5l2.6-8Z"/><path class="s" d="M301.35,94.24l3.1-1.3-.2,3.3s4.5,6.9,2.2,7.6-4.7-4.1-4.7-4.1-.8,2.3-1.9,1.8,1.9-5.3,1.9-5.3Z"/><path class="z" d="M282.85,63.84c12.3,2.3,17,6.6,20.1,12.6,4.1,7.6,2.1,18.1,2.1,18.1h-3.8c-.7-6.2-.4-16.2-14.5-19.8Z"/><path class="r" d="M275.55,63.54s-2.8,3.3-1.1,3.4,3.6-2.6,3.6-2.6.5,3.7,2.5,3c2.3-.8,1.7-4,1.7-4Z"/><circle class="r" cx="277.05" cy="69.54" r="1.1"/><circle class="r" cx="276.25" cy="73.74" r="1.1"/><path class="q" d="M268.35,48.64c-1.1-.5-2.6-2.9-3.7-4.8,0,1.9.9,3.8,1.5,5.5s-2.5,1.9-2.5,1.9c2.2,2.2,5,.9,5.9.6,0,0,.6-2.8.9-4.1A1.4,1.4,0,0,1,268.35,48.64Z"/><path class="r" d="M217.25,78.94a4.22,4.22,0,0,0,.2-3.4c-1.1-3-5.2-2.2-5.2-2.2a4.36,4.36,0,0,0-3.9-3.6,3.84,3.84,0,0,0-4.2,2.9c-1.7-1.4-4.8-2.4-6.9-.8-3,2.4-1.6,6.8-1.6,6.8a2.7,2.7,0,0,0-1.6.3h0a3.68,3.68,0,0,0-1.7,3c-.3,3,3.2,4.9,3.2,4.9-.3,4.8,3.7,5.8,4.9,5.3l.5-5.4c2.3,0,3-3.2,3.2-4.6v-.6a9.58,9.58,0,0,0,2.2.3h.3c4.5-.1,6.4-4.3,6.4-4.3h.1l2.1,7c3.5-1.9,1.1-4.5,1.1-4.5a2.69,2.69,0,0,0,.9-1.1Z"/><path class="ac" d="M204.45,79.94a2.25,2.25,0,0,0-2.1.3,4.57,4.57,0,0,0-1.4,1.7,7.94,7.94,0,0,1-1.4,1.8,3.37,3.37,0,0,1-2,.9,2.49,2.49,0,0,1-1.7-.3,2.56,2.56,0,0,1-1-1.3,7.91,7.91,0,0,1-.7-4,3.46,3.46,0,0,0-1.7,3c-.3,3,3.2,4.9,3.2,4.9-.3,4.8,3.7,5.8,4.9,5.3l.5-5.4h0c2.3,0,3-3.2,3.2-4.6v-.6a9.58,9.58,0,0,0,2.2.3h0a4.35,4.35,0,0,1-.4-.7Z"/><path class="ac" d="M213.15,77.84l2.2,7.1c3.6-1.9,1.1-4.5,1.1-4.5a8,8,0,0,0,1-1.3A6,6,0,0,1,213.15,77.84Z"/><path class="o" d="M203,87.44s-3.2-4.1-4.3-2.5c-1.8,2.6,4.5,5.4,4.5,5.4Z"/><path class="r" d="M215.35,175.14c5.2-5.2,11.9-13.6,10.8-23.5-.9-8.8-6.7-20.1-22.5-23.3l-19.5-.5c-.3,8.6,5,19.6,14.1,29.2,0,0-10.7,1.2-22.2,9.4l.8,2.6s25.2-.8,30.7-6.7c4.4-4.7-10.1-24-7.1-23.8,2.2.2,14,6.1,16.1,14.5,1.4,5.6-.5,14.3-4.9,20.7Z"/><path class="x" d="M178.25,168.74a7.47,7.47,0,0,1,.3,6.6l-4.4-8.1,2.9-1.4Z"/><path class="x" d="M214.65,174.54a7.77,7.77,0,0,1,3.4,5.6l-7.1-5,1.4-2.2Z"/></svg>